# xmcd
#
# Track frame offsets: 
#        150
#        21193
#        43381
#        61343
#        85188
#        102388
#        120020
#        142826
#        169431
#        199349
#        216348
#        232838
#        248865
#        261813
#        275116
#
# Disc length: 3909 seconds
#
# Revision: 1
# Processed by: cddbd v1.5.2PL0 Copyright (c) Steve Scherf et al.
# Submitted via: ExactAudioCopy v0.99pb4
#
DISCID=da0f430f
DTITLE=Little Arthur Duncan - Live At Rosa's Blues Lounge
DYEAR=2007
DGENRE=Blues
TTITLE0=Leaving Mississippi
TTITLE1=Pretty Girls Everywhere
TTITLE2=No Place To Go
TTITLE3=Pretty Thing
TTITLE4=I Got Love If You Want It
TTITLE5=I Got To Go
TTITLE6=Little Red Rooster
TTITLE7=Young Fashioned Ways
TTITLE8=Blues With A Feeling
TTITLE9=44 Blues
TTITLE10=Bad Reputation
TTITLE11=Back Door
TTITLE12=I Got To Find My Baby
TTITLE13=Blues I Got To Leave You
TTITLE14=Trackmarks
EXTD=
EXTT0=
EXTT1=
EXTT2=
EXTT3=
EXTT4=
EXTT5=
EXTT6=
EXTT7=
EXTT8=
EXTT9=
EXTT10=
EXTT11=
EXTT12=
EXTT13=
EXTT14=
PLAYORDER=
